<?xml version="1.0" encoding="UTF-8"?>
<svg id="Layer_1" data-name="Layer 1" xmlns="http://www.w3.org/2000/svg" xmlns:xlink="http://www.w3.org/1999/xlink" viewBox="0 0 1080 1080">
  <defs>
    <style>
      .cls-1 {
        fill: url(#linear-gradient);
      }

      .cls-1, .cls-2 {
        stroke-width: 0px;
      }

      .cls-2 {
        fill: #fff;
      }
    </style>
    <linearGradient id="linear-gradient" x1="0" y1="4687.5" x2="1080" y2="4687.5" gradientTransform="translate(0 5227.5) scale(1 -1)" gradientUnits="userSpaceOnUse">
      <stop offset="0" stop-color="#de5e00"/>
      <stop offset="0" stop-color="#de5e00"/>
    </linearGradient>
  </defs>
  <path class="cls-1" d="M540,0h0c298.23,0,540,241.77,540,540h0c0,298.23-241.77,540-540,540h0C241.77,1080,0,838.23,0,540h0C0,241.77,241.77,0,540,0Z"/>
  <path class="cls-2" d="M556.4,242.47c12.3,12.03,13.2,32.07,5.32,46.57-.17.32-.18.64-.04.97,12.03,27.37,22.18,51.29,36.25,71.13,17.57,24.78,35.61,48.05,50.89,75.62,2.72,4.91,2.76,8.93,2.14,14.24-.04.37.06.7.29.98,7.99,9.86,17.48,9.75,29.63,8.72,18.13-1.55,30.78-2.19,37.95-1.94,46.41,1.6,84.9,33.76,87.46,81.4,1.3,24.15-2.18,46.56-14.83,66.83-13.51,21.63-31.83,38.41-54.98,50.32-5.1,2.63-10.22,5.23-15.35,7.81-21.77,10.93-31.95,43.33-26.32,65.71,1.57,6.2,6.24,19.94,14.03,41.21,1.09,2.96,1.53,5.28,1.34,6.96-.96,8.16-13.55,11.85-20.54,12.49-.18.02-.34.09-.48.21-.13.12-.22.28-.26.46-3.37,19.21-13.28,39.75-29.62,51.15-4.68,3.26-11.42,6.31-20.23,9.14-23.75,7.64-48.01,11.8-72.79,12.5-40.04,1.14-78.1-1.51-115.46-14.74-18.51-6.56-31.61-22.71-38.2-40.72-11.85-32.38-7.62-66.98,7-97.62,5.09-10.65,11.11-22.45,14.96-32.31,14.39-36.84,16.95-76.73,9.7-115.52-8.42-45.09-44.66-79.97-87.92-92.92-32.88-9.83-67.99-7.75-101.4-4.47-12.23,1.2-12.41-5.25-4.8-11.84,20.35-17.62,47.03-26.31,73.7-29.14,32.41-3.46,62.86.6,91.28,16.42,11.44,6.38,18.19,13.82,27.94,24.34,1.57,1.69,3.11,2.79,4.62,3.28.11.03.22.04.33.02.11-.02.21-.07.3-.13.09-.07.16-.16.2-.26.05-.1.06-.21.06-.32-.5-7.84-1.51-15.53-3.03-23.08-.88-4.4,2.14-8.48,4.21-12.32,15.15-28.08,36.25-53.63,55.74-81.96,1.26-1.83,2.34-3.67,3.26-5.51,9.16-18.48,17.93-37.14,26.32-55.99.15-.36.14-.7-.05-1.04-7.96-14.66-7.24-34.54,5.41-46.61.12-.12.21-.27.23-.44.03-.17,0-.34-.09-.49-3.48-6.26-4.37-12.91-2.66-19.93,1.37-5.67,7.56-15.13,14.12-10.4,9.48,6.82,9.35,20.94,4.22,30.28-.19.33-.15.64.14.91ZM784.88,556.53c-1.97-27.52-19.15-53.35-45.98-62.28-32.98-10.97-74.83,10.49-97.91,33.17-.28.27-.42.59-.45.97-1.01,16.23-1.33,32.47-.96,48.73.93,40.12,12.22,81.26,29.23,117.53.19.4.39.41.61.02,11.89-21.33,29.36-37.67,49.8-50.59,8.48-5.35,20.99-10.63,28.72-15.28,7.9-4.77,15.31-11.95,22.21-21.54,11.13-15.48,16.05-32.39,14.73-50.73Z"/>
</svg>