<?xml version="1.0" encoding="UTF-8"?>
<svg id="Layer_2" data-name="Layer 2" xmlns="http://www.w3.org/2000/svg" viewBox="0 0 78.13 83.02">
  <defs>
    <style>
      .cls-1 {
        fill: #010101;
        stroke-width: 0px;
      }
    </style>
  </defs>
  <g id="Layer_3" data-name="Layer 3">
    <g>
      <path class="cls-1" d="M.05,83.02c.43-6.19,4.86-9.83,9.23-10.25,1.63-.16,11.3-.29,11.3-.29,0,0,.17-17.45.31-18.73.52-4.59,5.02-9.36,10.4-9.36,0,2.39-.01,28.09-.01,28.09h36.18s0-21.35,0-21.35h-1c-.61,0-4.43-.08-5.74-.23-4.59-.52-9-5.11-9.38-10.4h16.12s0-5.99,0-5.99h-8.8c-8.61,0-13.26-1.26-14.97-9.69h23.77v-6.04h-16.86c-10.24,0-12.43-6.19-13.29-10.62h27.76c7.38,0,13.03,5.06,13.03,13.05,0,1.21.03,52.15.03,61.8H.05Z"/>
      <path class="cls-1" d="M0,54.87c-.14,5.98,4.49,11.42,10.65,11.66v-11.08c0-5.37-5.64-10.88-10.64-11.08v10.5Z"/>
      <path class="cls-1" d="M15.65,39.45C7.54,39.45.02,32.96.02,23.82V0c6.41.4,9.87,5.57,10.4,9.05,0,0,2.07-.87,5.24-.87,8.62,0,15.64,7.01,15.64,15.64s-7.01,15.64-15.64,15.64ZM15.65,18.88c-2.73,0-4.94,2.22-4.94,4.94s2.22,4.94,4.94,4.94,4.94-2.22,4.94-4.94-2.22-4.94-4.94-4.94Z"/>
    </g>
  </g>
</svg>