<svg width="209" height="187" viewBox="0 0 209 187" fill="none" xmlns="http://www.w3.org/2000/svg">
<g clip-path="url(#clip0_37_422)">
<path d="M44.4373 148.393C45.1455 138.208 52.4074 132.238 59.5794 131.539C62.2549 131.28 70.0676 131.134 76.4865 131.077H78.1165L78.2289 129.432C78.2289 120.6 78.3863 102.383 78.6223 100.277C79.4654 92.7399 86.0529 86.172 93.9331 85.0116C94.1467 84.9891 94.3828 84.9665 94.6301 84.944C94.7537 84.9327 95.1922 84.9102 95.6868 84.8877C95.6868 88.8194 95.6868 100.412 95.6755 129.421V131.066L155.03 131.077V95.9619H153.389C152.388 95.9619 146.116 95.8267 143.98 95.5789C136.459 94.7339 129.906 88.1322 128.748 80.2349C128.725 80.0209 128.703 79.7618 128.68 79.5139L128.647 79.2435C128.624 79.0858 128.613 78.9168 128.602 78.7591C128.602 78.669 128.602 78.5789 128.59 78.4775H155.03V68.62H136.066C134.425 68.62 132.525 68.4848 130.108 68.2144C123.228 67.4371 117.237 61.3986 116.169 54.1773C116.146 53.997 116.079 53.2648 116.079 53.2648C116.067 53.1183 116.045 52.9718 116.034 52.8254C116.034 52.7803 116.034 52.7465 116.034 52.7015H133.604H133.829V52.6789C135.234 52.7127 137.134 52.7127 139.708 52.7127H141.349V52.7015H150.837H153.389H155.03V42.7764H146.577V42.7989C139.539 42.7989 138.269 42.7989 138.146 42.7989L138.179 42.8327C137.696 42.7876 137.123 42.7876 136.437 42.7876H127.376C125.33 42.7876 123.172 42.6524 120.957 42.4046C113.437 41.5596 106.883 34.9579 105.725 27.0606C105.703 26.8579 105.68 26.6325 105.658 26.4072L105.624 26.0805C105.602 25.9228 105.59 25.7538 105.579 25.5961C105.579 25.506 105.579 25.4046 105.568 25.3145H123.981C124.521 25.3145 125.139 25.3145 125.87 25.3145H141.282H150.77C158.571 25.3145 164.383 28.0182 168.531 33.561C171.072 36.952 172.398 40.6697 172.465 44.6352C172.499 46.6292 172.51 132.508 172.51 148.381H44.4373V148.393Z" fill="black"/>
<path d="M61.8276 115.17C61.8276 116.95 61.8276 119.564 61.8276 121.276C61.7265 121.276 61.6365 121.276 61.5354 121.265C61.3892 121.265 61.2206 121.242 61.0632 121.22L60.8159 121.197C60.4899 121.164 60.2651 121.152 60.0515 121.118C52.205 119.958 45.7637 113.537 44.7632 105.831L44.7182 105.482C44.5721 104.389 44.381 102.89 44.3922 102.113L44.426 100.232C44.4035 99.8149 44.3698 98.4518 44.3698 92.4471V84.8428C44.4709 84.8428 44.5609 84.8428 44.662 84.854C44.8082 84.854 44.9768 84.8766 45.1342 84.8991L45.3815 84.9216C45.6738 84.9442 45.9098 84.9667 46.1571 85.0005C53.5652 86.0933 59.8716 92.4246 61.4567 100.401C61.5691 101.088 61.704 106.079 61.7827 111.216L61.8164 115.159L61.8276 115.17Z" fill="black"/>
<path d="M70.0226 76.7651C56.7128 76.7651 45.4827 66.3555 44.4597 53.0619C44.4597 52.893 44.4485 52.6113 44.426 52.3409C44.4147 52.1494 44.3922 51.9692 44.3922 51.7777L44.3698 51.0679L44.3922 50.4258V35.9493C44.3922 34.879 44.381 34.0566 44.3585 33.4032L44.381 33.4258V11.9082C44.4822 11.9082 44.5721 11.9082 44.6733 11.9195C44.8194 11.9195 44.988 11.942 45.1454 11.9645L45.3927 11.9871C45.7075 12.0209 45.9436 12.0321 46.1571 12.0659C53.1493 13.0911 59.2759 18.4761 61.0183 25.1567L61.4454 26.779L63.053 26.3284C65.335 25.6862 67.6844 25.3595 70.0339 25.3595C84.1755 25.3595 95.6867 36.8956 95.6867 51.0679C95.6867 65.2402 84.1755 76.7763 70.0339 76.7763L70.0226 76.7651ZM70.0226 42.934C65.5486 42.934 61.9176 46.5841 61.9176 51.0566C61.9176 55.5291 65.5598 59.1792 70.0226 59.1792C74.4855 59.1792 78.1277 55.5291 78.1277 51.0566C78.1277 46.5841 74.4855 42.934 70.0226 42.934Z" fill="black"/>
<path d="M40.3116 144.833C41.0199 134.648 48.2818 128.678 55.4538 127.979C58.1293 127.72 65.942 127.573 72.3609 127.517H73.9909L74.1033 125.872C74.1033 117.04 74.2607 98.8233 74.4967 96.7166C75.3398 89.1798 81.9273 82.6119 89.8075 81.4516C90.0211 81.429 90.2572 81.4065 90.5045 81.384C90.6281 81.3727 91.0665 81.3502 91.5612 81.3276C91.5612 85.2594 91.5612 96.8518 91.5499 125.861V127.506L150.904 127.517V92.4018H149.263C148.263 92.4018 141.99 92.2667 139.854 92.0188C132.334 91.1739 125.78 84.5722 124.622 76.6749C124.6 76.4608 124.577 76.2017 124.555 75.9539L124.521 75.6835C124.498 75.5258 124.487 75.3568 124.476 75.1991C124.476 75.1089 124.476 75.0188 124.465 74.9174H150.904V65.0599H131.94C130.299 65.0599 128.399 64.9247 125.982 64.6543C119.103 63.877 113.111 57.8386 112.043 50.6172C112.021 50.437 111.953 49.7047 111.953 49.7047C111.942 49.5582 111.919 49.4118 111.908 49.2653C111.908 49.2203 111.908 49.1865 111.908 49.1414H129.478H129.703V49.1189C131.108 49.1527 133.008 49.1527 135.582 49.1527H137.224V49.1414H146.711H149.263H150.904V39.2163H142.451V39.2388C135.414 39.2388 134.144 39.2388 134.02 39.2388L134.054 39.2726C133.57 39.2276 132.997 39.2276 132.311 39.2276H123.251C121.205 39.2276 119.046 39.0924 116.832 38.8445C109.311 37.9996 102.758 31.3979 101.6 23.5006C101.577 23.2978 101.555 23.0725 101.532 22.8472L101.499 22.5205C101.476 22.3627 101.465 22.1938 101.454 22.036C101.454 21.9459 101.454 21.8445 101.442 21.7544H119.856C120.395 21.7544 121.014 21.7544 121.744 21.7544H137.156H146.644C154.446 21.7544 160.257 24.4582 164.405 30.0009C166.946 33.3919 168.272 37.1096 168.34 41.0751C168.374 43.0692 168.385 128.948 168.385 144.821H40.3116V144.833Z" fill="url(#paint0_linear_37_422)"/>
<path d="M57.702 111.61C57.702 113.39 57.702 116.004 57.702 117.716C57.6009 117.716 57.5109 117.716 57.4098 117.705C57.2636 117.705 57.095 117.682 56.9376 117.66L56.6903 117.637C56.3643 117.603 56.1395 117.592 55.9259 117.558C48.0794 116.398 41.6381 109.977 40.6376 102.271L40.5926 101.922C40.4465 100.829 40.2554 99.3304 40.2666 98.5531L40.3003 96.6717C40.2779 96.2549 40.2441 94.8917 40.2441 88.8871V81.2827C40.3453 81.2827 40.4352 81.2827 40.5364 81.294C40.6826 81.294 40.8512 81.3165 41.0086 81.339L41.2559 81.3616C41.5481 81.3841 41.7842 81.4066 42.0315 81.4404C49.4396 82.5332 55.746 88.8646 57.3311 96.8407C57.4435 97.5279 57.5784 102.519 57.6571 107.656L57.6908 111.599L57.702 111.61Z" fill="url(#paint1_linear_37_422)"/>
<path d="M65.9082 73.2163C52.5984 73.2163 41.3683 62.8067 40.3453 49.5132C40.3453 49.3442 40.3341 49.0625 40.3116 48.7921C40.3003 48.6006 40.2779 48.4204 40.2779 48.2289L40.2554 47.5191L40.2779 46.877V32.4005C40.2779 31.3303 40.2666 30.5079 40.2441 29.8544L40.2666 29.877V8.34814C40.3678 8.34814 40.4577 8.34814 40.5589 8.35941C40.705 8.35941 40.8737 8.38194 41.031 8.40447L41.2784 8.427C41.5931 8.4608 41.8292 8.47207 42.0428 8.50587C49.0349 9.53105 55.1615 14.9161 56.9039 21.5967L57.3311 23.2189L58.9386 22.7683C61.2206 22.1261 63.57 21.7994 65.9195 21.7994C80.0612 21.7994 91.5724 33.3356 91.5724 47.5079C91.5724 61.6802 80.0612 73.2163 65.9195 73.2163H65.9082ZM65.9082 39.3853C61.4342 39.3853 57.8032 43.0354 57.8032 47.5079C57.8032 51.9804 61.4454 55.6305 65.9082 55.6305C70.3711 55.6305 74.0133 51.9804 74.0133 47.5079C74.0133 43.0354 70.3711 39.3853 65.9082 39.3853Z" fill="url(#paint2_linear_37_422)"/>
<path d="M97.1257 159.072C92.8427 158.261 89.8525 157.011 88.1438 155.895C86.4351 154.769 83.2875 152.178 79.1732 147.48C76.6326 148.302 74.3956 148.404 72.5632 147.908C70.7309 147.412 68.1453 145.981 64.9078 143.278C62.0075 140.856 59.1747 138.174 56.4206 135.223C52.0701 144.821 46.1235 149.147 38.2207 145.722C31.4422 142.703 22.7189 133.476 14.3328 115.113C6.53126 97.8767 3.17008 80.8429 3.21504 68.4394C3.26001 55.8668 6.55374 49.0398 12.0508 47.7104C16.7609 46.4937 21.3811 47.0682 25.844 48.7356C30.7565 50.5156 37.58 54.5036 45.9886 57.5679C45.7637 59.4268 45.5726 61.2969 45.404 63.1895C38.5692 61.6574 33.5218 59.5056 30.5654 58.7621C27.5976 57.9847 24.7648 57.996 22.1118 59.1113C18.6944 60.5083 16.8171 65.8595 17.1769 75.2439C17.5366 84.5494 20.212 95.9841 25.5292 107.34C30.7677 118.504 36.6919 125.455 42.3351 128.711C48.0008 131.944 51.8004 130.818 53.835 126.886C55.1166 124.43 56.0384 121.58 56.6904 118.414C57.3536 115.248 58.0618 109.762 59.3209 102.315C63.4689 98.8568 67.4371 95.049 71.203 90.9258C70.1576 97.4712 69.3819 102.8 68.4489 106.63C67.6395 109.976 66.2568 113.897 64.2221 118.335C65.5486 119.744 66.8863 121.084 68.2465 122.357C72.7318 126.514 76.2954 127.934 78.5549 127.483C80.8369 127.021 82.4781 124.498 83.5573 120.149C84.0294 118.256 84.4791 116.938 84.9063 116.172C85.3222 115.417 86.0304 114.775 86.9859 114.223C87.7841 113.773 88.571 113.288 89.3466 112.793C89.2117 113.739 88.9869 115.001 88.6946 116.578C88.4023 118.166 88.2 119.192 88.0988 119.676C87.548 122.335 86.615 125.759 85.1873 129.894C86.4576 131.325 87.7841 132.643 89.1555 133.848C90.5382 135.054 91.8872 136 93.1799 136.698C93.4048 134.907 93.2811 132.598 92.8764 129.77C92.4717 126.942 92.3818 125.129 92.4942 124.34C92.5841 123.743 92.719 123.202 92.8989 122.695C93.0788 122.188 93.4272 121.557 93.9106 120.791C95.698 117.918 97.373 114.944 98.9018 111.869C99.2728 115.181 99.5426 118.166 99.6437 120.814C99.7449 123.461 99.6662 126.728 99.3627 130.604C98.6095 140.078 97.8564 149.564 97.1032 159.038L97.1257 159.072Z" fill="black"/>
<path d="M149.443 142.365C151.838 149.17 151.141 157.923 145.88 167.747C140.63 177.481 132.603 184.341 123.015 186.414C115.011 188.138 108.569 185.975 104.331 181.379C100.06 176.737 98.4634 170.237 98.9805 162.452C99.4526 155.141 100.566 148.877 102.061 143.571C103.758 137.566 106.715 130.266 109.873 121.141C110.761 122.166 111.683 123.157 112.616 124.126C110.638 130.288 108.895 135.448 107.794 139.808C106.692 144.157 106.018 148.46 105.95 152.764C105.871 157.36 107.097 161.01 109.84 163.444C112.571 165.854 116.573 166.823 121.598 165.708C128.793 164.086 134.301 159.816 137.73 154.352C141.181 148.832 141.889 143.312 140.439 138.231C140.191 137.352 139.989 136.654 139.843 136.135C139.697 135.628 139.584 135.234 139.506 134.952C139 133.139 138.325 131.212 137.516 129.151C136.707 127.089 134.919 122.921 132.379 116.454C128.298 106.033 124.622 95.2745 121.351 84.2341C120.721 83.6032 120.103 82.9386 119.507 82.2626C118.552 77.5197 118.023 69.8365 116.719 59.6748C117.09 60.0578 117.473 60.4296 117.855 60.7901C117.978 61.4773 118.158 62.2434 118.372 63.0883C118.867 64.9697 119.507 66.3554 120.362 67.1665C121.598 68.2255 122.835 69.138 124.06 69.9266C125.229 73.9034 125.982 76.81 126.365 78.6238C126.735 80.4376 127.185 83.2427 127.567 87.1069C127.196 87.0393 126.837 86.9492 126.477 86.8703C126.691 87.5575 128.062 91.3541 130.861 98.0459C133.671 104.726 136.246 110.359 138.483 115.046C141.675 121.76 143.676 125.782 144.205 127.359C145.947 132.361 147.689 137.375 149.432 142.377L149.443 142.365Z" fill="black"/>
<path d="M158.942 107.621C160.943 110.934 162.494 114.358 163.495 117.963C164.495 121.568 165.44 126.965 165.968 134.344C164.698 135.099 163.427 135.808 162.168 136.462C160.493 130.311 158.762 125.703 157.166 122.47C155.952 120.002 154.007 116.566 151.399 112.083C148.791 107.599 146.183 103.194 143.609 98.8116C141.035 94.4405 137.865 89.3146 134.301 83.2199C133.053 81.0794 132.255 79.5472 131.873 78.6572C131.311 77.3504 130.625 74.8494 129.681 71.2669C128.737 67.6844 127.59 63.3246 126.027 58.3789C129.962 65.0595 134.076 71.5035 138.393 77.6771C143.294 84.752 147.656 90.689 151.242 95.8375C154.007 99.803 156.604 103.701 158.953 107.61L158.942 107.621Z" fill="black"/>
<path d="M198.624 51.3493C197.556 56.2499 196.376 60.9815 195.117 65.5554C191.598 78.4208 188.271 88.7966 185.449 97.9218C182.605 106.979 181.357 111.779 182.414 113.086C186.708 114.719 190.778 116.026 194.6 117.141C198.422 118.257 201.682 119.969 204.267 122.661C206.145 124.599 207.426 126.661 208.089 128.891C208.753 131.122 209.079 134.378 208.978 138.681C205.043 135.482 200.445 133.026 195.353 130.852C193.577 130.052 189.631 128.745 183.831 126.12C180.267 124.475 178.142 122.932 177.344 121.805C176.198 120.183 175.208 117.502 174.23 113.874C173.432 110.923 172.848 108.106 172.454 105.391C172.038 102.237 172.477 98.395 173.59 93.6521C174.703 88.8867 176.838 82.2287 179.446 72.7429C174.478 74.8271 171.532 76.7535 170.318 79.615C169.79 80.8542 169.576 82.2512 169.655 83.8735C169.723 85.4957 170.15 88.4586 170.757 92.9311C169.869 93.6972 168.981 94.4182 168.093 95.1167C165.147 88.3572 163.113 82.6004 162.045 77.666C160.977 72.7204 160.954 68.9126 162.168 65.7018C163.236 62.8854 165.507 60.5759 169.138 57.9735C172.769 55.3486 177.996 52.2956 184.955 47.0908C189.507 48.5216 194.06 49.9411 198.613 51.3718L198.624 51.3493Z" fill="black"/>
<path d="M48.2368 99.9948C48.383 97.7192 48.6078 95.466 48.9001 93.2354C51.5193 93.2016 53.5653 92.7059 55.0266 91.8159C56.4993 90.9147 57.4885 89.5966 58.0618 87.8278C58.6801 85.9465 58.6801 84.4369 58.0281 83.1864C57.3761 81.9359 56.4206 81.0684 55.0828 80.6178C54.2285 80.3249 53.4191 80.2911 52.6435 80.5277C51.8791 80.7642 51.0584 81.3388 50.2041 82.3189C49.6308 82.9948 48.4617 84.5495 46.8092 87.2308C44.6958 90.6781 42.8072 93.2579 40.9412 94.7112C38.3219 96.7503 35.4891 97.8318 32.4202 97.6065C30.4417 97.4601 28.6993 96.7278 27.2379 95.3196C25.7765 93.9113 24.866 91.9286 24.5625 89.3938C24.2702 86.8703 24.6187 83.8848 25.6641 80.6065C27.3841 75.244 29.9808 71.7066 32.9935 69.9942C36.0287 68.2705 39.1763 68.1691 42.4475 69.4084C41.447 71.7742 40.5252 74.185 39.6821 76.6522C37.6924 76.3593 36.0849 76.6297 34.8483 77.4746C33.623 78.3196 32.6001 79.8855 31.8806 82.1612C31.1274 84.5157 31.06 86.4985 31.6108 88.0081C31.9593 88.977 32.6563 89.529 33.6343 89.6867C34.5448 89.8332 35.4104 89.5515 36.2535 88.8868C37.3327 88.0419 38.8053 85.8113 40.8512 82.4879C42.9084 79.1645 44.7857 76.9902 46.337 75.751C47.8884 74.5117 49.6308 73.802 51.5193 73.6105C53.4191 73.4077 55.4538 73.8358 57.6571 74.7821C59.6581 75.6496 61.2993 76.9001 62.6708 78.4435C64.0422 79.9982 64.8404 81.643 65.1102 83.4229C65.38 85.2029 65.1214 87.1632 64.3907 89.4276C63.3228 92.7284 61.5804 95.1844 58.8824 96.9418C56.1957 98.6768 52.6659 99.7808 48.2144 100.006L48.2368 99.9948Z" fill="black"/>
<path d="M84.2542 57.4216C82.8828 58.6271 81.5675 59.8888 80.2972 61.2069C77.723 59.7762 75.0812 58.4355 72.3833 57.1738C69.8315 60.0015 67.4596 63.0545 65.3012 66.3103C67.2797 68.4958 69.3144 70.6138 71.4165 72.6529C70.4385 74.2301 69.5055 75.8524 68.6399 77.531C58.77 69.138 50.0467 59.0889 42.7397 47.688C44.4372 45.311 46.2133 43.024 48.0682 40.8159C61.2768 44.6012 73.44 50.2566 84.2655 57.4104L84.2542 57.4216ZM66.2792 54.5038C61.7714 52.6111 57.1062 50.9438 52.3287 49.5131C55.0491 53.6138 57.9381 57.5455 61.0183 61.297C62.6707 58.92 64.4244 56.6555 66.2792 54.5038Z" fill="black"/>
<path d="M86.3902 55.6303C78.5437 45.998 70.7084 36.3658 62.8619 26.7336C64.9304 25.0663 67.055 23.4778 69.2358 21.9795C75.0926 30.4626 80.9381 38.957 86.7949 47.4401C90.5383 44.8602 94.5177 42.6521 98.6883 40.8271C99.5201 42.7648 100.363 44.7025 101.195 46.6402C95.8892 48.9609 90.9205 51.9802 86.4014 55.6303H86.3902Z" fill="black"/>
<path d="M126.78 41.0638C124.881 41.1089 122.992 41.2215 121.126 41.413C120.159 38.6417 119.103 35.8928 117.945 33.1665C114.134 33.6847 110.402 34.4846 106.782 35.5436C106.805 38.5065 106.917 41.4581 107.119 44.3759C105.433 44.9279 103.769 45.5476 102.151 46.2235C100.352 33.3918 100.419 20.0419 102.522 6.55684C105.287 5.85837 108.086 5.26128 110.919 4.77686C118.125 16.2904 123.464 28.525 126.78 41.0751V41.0638ZM115.213 27.1506C113.145 22.757 110.829 18.4422 108.288 14.2288C107.569 19.1407 107.119 24.0525 106.917 28.9193C109.637 28.1983 112.403 27.6012 115.213 27.1506Z" fill="black"/>
<path d="M129.501 41.0526C130.198 28.435 130.895 15.8173 131.592 3.19971C135.819 3.2673 140.09 3.57148 144.407 4.10097C145.43 12.9558 145.812 21.8107 145.531 30.6093C149.69 22.5542 154.513 14.6795 160.021 7.07512C164.417 8.2017 168.846 9.57612 173.286 11.2096C167.384 22.8246 161.483 34.4509 155.592 46.0658C153.872 45.435 152.152 44.8604 150.444 44.3535C154.277 34.9353 158.11 25.5171 161.955 16.1102C155.457 24.7285 149.814 33.7073 145.036 42.9452C143.272 42.5509 141.518 42.213 139.775 41.9426C140.158 31.871 139.708 21.7318 138.46 11.6265C137.134 21.5178 135.807 31.4204 134.481 41.3117C132.817 41.1765 131.165 41.0864 129.523 41.0639L129.501 41.0526Z" fill="black"/>
<path d="M93.9331 155.873C89.6501 155.061 86.6599 153.811 84.9512 152.696C83.2425 151.569 80.0949 148.978 75.9805 144.28C73.44 145.102 71.203 145.204 69.3706 144.708C67.5383 144.212 64.9527 142.782 61.7152 140.078C58.8149 137.656 55.9821 134.975 53.228 132.023C48.8775 141.621 42.9308 145.947 35.0281 142.523C28.2496 139.503 19.5263 130.277 11.1402 111.914C3.31617 94.677 -0.045009 77.6432 -4.33809e-05 65.2396C0.0449222 52.6671 3.33865 45.84 8.83569 44.5107C13.5458 43.294 18.166 43.8685 22.6289 45.5359C27.5414 47.3159 34.3649 51.3039 42.7735 54.3682C42.5486 56.2271 42.3575 58.0972 42.1889 59.9898C35.3541 58.4577 30.3068 56.3059 27.3503 55.5624C24.3825 54.785 21.5497 54.7963 18.8967 55.9116C15.4794 57.3086 13.602 62.6598 13.9618 72.0442C14.3215 81.3497 16.9969 92.7844 22.3141 104.14C27.5526 115.305 33.4768 122.256 39.12 125.511C44.7857 128.745 48.5853 127.618 50.62 123.686C51.9015 121.23 52.8233 118.38 53.4753 115.214C54.1385 112.049 54.8467 106.562 56.1058 99.1157C60.2538 95.6571 64.222 91.8493 67.9879 87.7261C66.9425 94.2715 66.1668 99.6001 65.2338 103.43C64.4244 106.776 63.0417 110.697 61.007 115.136C62.3335 116.544 63.6712 117.884 65.0314 119.157C69.5167 123.315 73.0803 124.734 75.3398 124.283C77.6218 123.821 79.263 121.298 80.3422 116.949C80.8144 115.057 81.264 113.739 81.6912 112.973C82.1071 112.218 82.8153 111.576 83.7708 111.024C84.569 110.573 85.3559 110.089 86.1315 109.593C85.9966 110.539 85.7718 111.801 85.4795 113.378C85.1873 114.967 84.9849 115.992 84.8837 116.476C84.3329 119.135 83.3999 122.56 81.9722 126.694C83.2425 128.125 84.569 129.443 85.9404 130.649C87.3231 131.854 88.6721 132.8 89.9648 133.499C90.1897 131.707 90.066 129.398 89.6613 126.57C89.2566 123.743 89.1667 121.929 89.2791 121.14C89.369 120.543 89.5039 120.002 89.6838 119.495C89.8637 118.988 90.2122 118.358 90.6955 117.592C92.4829 114.719 94.1579 111.745 95.6867 108.669C96.0577 111.981 96.3275 114.967 96.4286 117.614C96.5298 120.262 96.4511 123.529 96.1476 127.404C95.3944 136.878 94.6413 146.364 93.8881 155.839L93.9331 155.873Z" fill="white"/>
<path d="M146.25 139.166C148.645 145.97 147.948 154.724 142.687 164.547C137.437 174.281 129.411 181.142 119.822 183.215C111.818 184.938 105.377 182.775 101.139 178.179C96.867 173.537 95.2708 167.037 95.7879 159.252C96.26 151.941 97.3729 145.677 98.868 140.371C100.565 134.366 103.522 127.066 106.681 117.941C107.569 118.966 108.491 119.958 109.424 120.926C107.445 127.089 105.703 132.248 104.601 136.608C103.499 140.957 102.825 145.26 102.758 149.564C102.679 154.16 103.904 157.81 106.647 160.244C109.379 162.655 113.381 163.624 118.406 162.508C125.6 160.886 131.108 156.616 134.537 151.152C137.988 145.632 138.696 140.112 137.246 135.031C136.999 134.152 136.796 133.454 136.65 132.936C136.504 132.429 136.392 132.034 136.313 131.753C135.807 129.939 135.133 128.013 134.323 125.951C133.514 123.889 131.727 119.721 129.186 113.254C125.105 102.834 121.429 92.0748 118.158 81.0344C117.529 80.4035 116.91 79.7388 116.315 79.0629C115.359 74.32 114.831 66.6368 113.527 56.4751C113.898 56.8581 114.28 57.2299 114.662 57.5904C114.786 58.2776 114.966 59.0437 115.179 59.8886C115.674 61.77 116.315 63.1557 117.169 63.9668C118.406 65.0258 119.642 65.9383 120.867 66.7269C122.037 70.7037 122.79 73.6103 123.172 75.4241C123.543 77.2379 123.993 80.043 124.375 83.9072C124.004 83.8396 123.644 83.7494 123.284 83.6706C123.498 84.3578 124.869 88.1544 127.668 94.8462C130.479 101.527 133.053 107.16 135.29 111.846C138.483 118.561 140.484 122.582 141.012 124.16C142.754 129.162 144.497 134.175 146.239 139.177L146.25 139.166Z" fill="white"/>
<path d="M155.75 104.422C157.75 107.734 159.302 111.159 160.302 114.764C161.303 118.369 162.247 123.765 162.775 131.144C161.505 131.899 160.235 132.609 158.976 133.262C157.301 127.111 155.57 122.503 153.973 119.27C152.759 116.803 150.815 113.367 148.207 108.883C145.599 104.399 142.991 99.9943 140.416 95.6119C137.842 91.2408 134.672 86.1149 131.108 80.0202C129.861 77.8797 129.062 76.3475 128.68 75.4575C128.118 74.1507 127.432 71.6497 126.488 68.0672C125.544 64.4847 124.397 60.1249 122.835 55.1792C126.769 61.8598 130.884 68.3038 135.2 74.4774C140.101 81.5523 144.463 87.4893 148.049 92.6378C150.815 96.6033 153.411 100.501 155.761 104.41L155.75 104.422Z" fill="white"/>
<path d="M195.432 48.1496C194.364 53.0502 193.183 57.7818 191.924 62.3557C188.406 75.2211 185.078 85.5969 182.257 94.7221C179.413 103.78 178.165 108.579 179.221 109.886C183.516 111.519 187.585 112.826 191.407 113.941C195.229 115.057 198.489 116.769 201.075 119.462C202.952 121.399 204.234 123.461 204.897 125.692C205.56 127.922 205.886 131.178 205.785 135.482C201.85 132.282 197.253 129.826 192.16 127.652C190.384 126.852 186.438 125.545 180.638 122.92C177.074 121.275 174.95 119.732 174.152 118.605C173.005 116.983 172.016 114.302 171.038 110.674C170.24 107.723 169.655 104.906 169.262 102.191C168.846 99.0369 169.284 95.1953 170.397 90.4524C171.51 85.687 173.646 79.029 176.254 69.5432C171.285 71.6274 168.34 73.5538 167.126 76.4153C166.597 77.6545 166.384 79.0515 166.463 80.6738C166.53 82.296 166.957 85.2589 167.564 89.7314C166.676 90.4975 165.788 91.2185 164.9 91.917C161.955 85.1575 159.92 79.4007 158.852 74.4663C157.784 69.5207 157.762 65.7129 158.976 62.5021C160.044 59.6857 162.314 57.3762 165.945 54.7738C169.576 52.1489 174.804 49.0959 181.762 43.8911C186.315 45.3219 190.868 46.7413 195.42 48.1721L195.432 48.1496Z" fill="white"/>
<path d="M45.0442 96.7951C45.1904 94.5195 45.4152 92.2663 45.7075 90.0357C48.3267 90.0019 50.3726 89.5062 51.834 88.6162C53.3066 87.715 54.2959 86.3969 54.8692 84.6281C55.4875 82.7468 55.4875 81.2372 54.8355 79.9867C54.1835 78.7362 53.228 77.8687 51.8902 77.4181C51.0359 77.1252 50.2265 77.0914 49.4508 77.3279C48.6864 77.5645 47.8658 78.1391 47.0115 79.1192C46.4382 79.7951 45.269 81.3498 43.6166 84.0311C41.5032 87.4784 39.6146 90.0582 37.7486 91.5115C35.1293 93.5506 32.2965 94.6321 29.2276 94.4068C27.2491 94.2604 25.5067 93.5281 24.0453 92.1199C22.5839 90.7116 21.6734 88.7289 21.3698 86.1941C21.0776 83.6706 21.426 80.6851 22.4715 77.4068C24.1914 72.0443 26.7882 68.5069 29.8009 66.7945C32.8361 65.0708 35.9837 64.9694 39.2549 66.2087C38.2544 68.5745 37.3326 70.9853 36.4895 73.4525C34.4998 73.1596 32.8923 73.43 31.6557 74.2749C30.4304 75.1199 29.4074 76.6858 28.688 78.9615C27.9348 81.316 27.8674 83.2988 28.4182 84.8084C28.7667 85.7772 29.4636 86.3293 30.4416 86.487C31.3522 86.6334 32.2178 86.3518 33.0609 85.6871C34.1401 84.8422 35.6127 82.6116 37.6586 79.2882C39.7158 75.9648 41.5931 73.7905 43.1444 72.5513C44.6957 71.312 46.4382 70.6023 48.3267 70.4108C50.2265 70.208 52.2612 70.6361 54.4645 71.5824C56.4655 72.4499 58.1067 73.7004 59.4782 75.2438C60.8496 76.7985 61.6478 78.4433 61.9175 80.2232C62.1873 82.0032 61.9288 83.9635 61.1981 86.2279C60.1302 89.5287 58.3878 91.9847 55.6898 93.7421C53.0031 95.477 49.4733 96.5811 45.0217 96.8064L45.0442 96.7951Z" fill="#26DD00"/>
<path d="M81.0616 54.2219C79.6901 55.4273 78.3749 56.6891 77.1046 58.0072C74.5303 56.5765 71.8886 55.2358 69.1907 53.9741C66.6389 56.8018 64.2669 59.8548 62.1086 63.1106C64.0871 65.2961 66.1218 67.4141 68.2239 69.4532C67.2459 71.0304 66.3129 72.6527 65.4473 74.3313C55.5774 65.9383 46.854 55.8892 39.5471 44.4883C41.2446 42.1112 43.0207 39.8243 44.8755 37.6162C58.0842 41.4015 70.2474 47.0569 81.0728 54.2106L81.0616 54.2219ZM63.0866 51.3153C58.5788 49.4227 53.9136 47.7554 49.136 46.3246C51.8564 50.4254 54.7455 54.3571 57.8256 58.1086C59.4781 55.7315 61.2318 53.4671 63.0866 51.3153Z" fill="#26DD00"/>
<path d="M83.1975 52.4305C75.3511 42.7983 67.5158 33.1661 59.6693 23.5339C61.7377 21.8666 63.8623 20.2781 66.0432 18.7798C71.8999 27.2629 77.7455 35.7573 83.6022 44.2404C87.3456 41.6605 91.3251 39.4524 95.4956 37.6274C96.3275 39.5651 97.1706 41.5028 98.0025 43.4405C92.6965 45.7612 87.7278 48.7804 83.2088 52.4305H83.1975Z" fill="#26DD00"/>
<path d="M123.588 37.8641C121.688 37.9092 119.8 38.0218 117.933 38.2133C116.967 35.442 115.91 32.6931 114.752 29.9668C110.941 30.485 107.209 31.2849 103.589 32.3439C103.612 35.3068 103.724 38.2584 103.927 41.1762C102.24 41.7282 100.577 42.3479 98.958 43.0238C97.1593 30.1921 97.2268 16.8422 99.3289 3.35714C102.094 2.65866 104.893 2.06158 107.726 1.57715C114.932 13.0907 120.272 25.3253 123.588 37.8754V37.8641ZM112.02 23.9509C109.952 19.5573 107.636 15.2425 105.096 11.0291C104.376 15.941 103.927 20.8528 103.724 25.7196C106.445 24.9986 109.21 24.4015 112.02 23.9509Z" fill="#26DD00"/>
<path d="M126.308 37.8529C127.005 25.2353 127.702 12.6176 128.399 0C132.626 0.0675944 136.898 0.371769 141.214 0.901259C142.237 9.75613 142.619 18.611 142.338 27.4095C146.498 19.3545 151.32 11.4798 156.829 3.87541C161.224 5.00199 165.653 6.37641 170.093 8.00994C164.192 19.6249 158.29 31.2512 152.4 42.8661C150.68 42.2353 148.96 41.6607 147.251 41.1537C151.084 31.7356 154.918 22.3174 158.762 12.9105C152.265 21.5288 146.621 30.5076 141.844 39.7455C140.079 39.3512 138.325 39.0133 136.583 38.7429C136.965 28.6713 136.515 18.5321 135.268 8.42677C133.941 18.3181 132.615 28.2207 131.288 38.112C129.624 37.9768 127.972 37.8867 126.331 37.8642L126.308 37.8529Z" fill="#26DD00"/>
</g>
<defs>
<linearGradient id="paint0_linear_37_422" x1="40.3116" y1="83.2991" x2="168.396" y2="83.2991" gradientUnits="userSpaceOnUse">
<stop stop-color="#FF3217"/>
<stop offset="0.56" stop-color="#FD3016"/>
<stop offset="0.76" stop-color="#F62C15"/>
<stop offset="0.9" stop-color="#EA2512"/>
<stop offset="1" stop-color="#DD1E10"/>
</linearGradient>
<linearGradient id="paint1_linear_37_422" x1="40.2554" y1="99.5107" x2="57.7133" y2="99.5107" gradientUnits="userSpaceOnUse">
<stop stop-color="#FF3217"/>
<stop offset="0.56" stop-color="#FD3016"/>
<stop offset="0.76" stop-color="#F62C15"/>
<stop offset="0.9" stop-color="#EA2512"/>
<stop offset="1" stop-color="#DD1E10"/>
</linearGradient>
<linearGradient id="paint2_linear_37_422" x1="40.2329" y1="40.7822" x2="91.5611" y2="40.7822" gradientUnits="userSpaceOnUse">
<stop stop-color="#FF3217"/>
<stop offset="0.56" stop-color="#FD3016"/>
<stop offset="0.76" stop-color="#F62C15"/>
<stop offset="0.9" stop-color="#EA2512"/>
<stop offset="1" stop-color="#DD1E10"/>
</linearGradient>
<clipPath id="clip0_37_422">
<rect width="209" height="187" fill="white"/>
</clipPath>
</defs>
</svg>
