<svg width="539" height="117" viewBox="0 0 539 117" fill="none" xmlns="http://www.w3.org/2000/svg">
<g clip-path="url(#clip0_7_523)">
<path d="M350.59 67.3802L358.25 66.6402C358.71 69.2102 359.65 71.1002 361.05 72.3002C362.45 73.5002 364.36 74.1102 366.75 74.1102C369.28 74.1102 371.19 73.5702 372.48 72.5002C373.76 71.4302 374.41 70.1702 374.41 68.7402C374.41 67.8202 374.14 67.0302 373.6 66.3902C373.06 65.7502 372.12 65.1802 370.77 64.7002C369.85 64.3802 367.75 63.8102 364.47 63.0002C360.25 61.9502 357.29 60.6702 355.59 59.1502C353.2 57.0102 352 54.3902 352 51.3102C352 49.3302 352.56 47.4702 353.69 45.7402C354.82 44.0102 356.44 42.7002 358.55 41.7902C360.66 40.8802 363.22 40.4302 366.22 40.4302C371.11 40.4302 374.79 41.5002 377.27 43.6502C379.75 45.8002 381.04 48.6602 381.16 52.2402L373.29 52.5902C372.95 50.5902 372.23 49.1502 371.12 48.2702C370.01 47.3902 368.35 46.9502 366.14 46.9502C363.93 46.9502 362.06 47.4202 360.77 48.3602C359.94 48.9602 359.52 49.7702 359.52 50.7802C359.52 51.7002 359.91 52.4902 360.69 53.1502C361.68 53.9802 364.09 54.8502 367.92 55.7602C371.75 56.6702 374.58 57.6002 376.41 58.5602C378.24 59.5302 379.68 60.8502 380.72 62.5202C381.76 64.1902 382.28 66.2602 382.28 68.7302C382.28 70.9602 381.66 73.0502 380.42 75.0002C379.18 76.9502 377.42 78.4002 375.16 79.3502C372.9 80.3002 370.06 80.7702 366.68 80.7702C361.75 80.7702 357.97 79.6302 355.33 77.3502C352.69 75.0702 351.11 71.7502 350.6 67.3902L350.59 67.3802Z" fill="black"/>
<path d="M424.04 80.0603H415.48L412.08 71.2103H396.5L393.28 80.0603H384.93L400.11 41.0903H408.43L424.03 80.0603H424.04ZM409.56 64.6403L404.19 50.1803L398.93 64.6403H409.56Z" fill="black"/>
<path d="M428.43 80.0602V41.4102H436.3V73.5002H455.87V80.0702H428.44L428.43 80.0602Z" fill="black"/>
<path d="M496.62 80.0603H488.06L484.66 71.2103H469.08L465.86 80.0603H457.51L472.69 41.0903H481.01L496.61 80.0603H496.62ZM482.13 64.6403L476.76 50.1803L471.5 64.6403H482.13Z" fill="black"/>
<path d="M500.69 80.0603V41.0903H512.47L519.54 67.6703L526.53 41.0903H538.33V80.0603H531.02V49.3803L523.28 80.0603H515.7L507.99 49.3803V80.0603H500.68H500.69Z" fill="black"/>
<path d="M225.65 69.8799C222.17 69.8799 219.7 69.7199 218.21 69.4099C216.72 69.0999 213.96 68.2099 209.92 66.7599C208.09 68.0599 206.45 68.9099 205.02 69.3199C203.58 69.7299 201.43 69.9399 198.55 69.9399H190.83C190.83 77.2699 188.49 82.5399 183.82 85.7699C179.74 88.5799 173.6 89.9899 165.39 89.9899C157.71 89.9899 151.8 88.5899 147.64 85.7999C143.48 83.0099 141.41 79.0299 141.41 73.8799C141.41 69.4899 142.07 65.4799 143.4 61.8399C144.85 57.8299 147.7 52.6199 151.93 46.1999L154.77 48.1899C151.64 53.5299 149.6 57.3999 148.63 59.7999C147.66 62.1999 147.18 64.6799 147.18 67.2399C147.18 70.5599 148.96 73.2699 152.51 75.3699C156.06 77.4699 160.73 78.5199 166.51 78.5199C172.29 78.5199 176.98 77.4299 180.87 75.2499C184.76 73.0699 186.7 70.3999 186.7 67.2399C186.7 65.2799 186.36 63.3399 185.68 61.4099C185 59.4799 183.54 56.3999 181.3 52.1699L185.47 39.3799C187.71 43.1699 189.2 46.2999 189.92 48.7599C190.55 50.9099 190.87 53.6699 190.87 57.0499H195.23C200 57.0499 203.33 56.4899 205.2 55.3699C207.08 54.2499 208.02 52.2299 208.02 49.3299C208.02 48.0699 208.14 47.1399 208.38 46.5599C208.62 45.9799 209.18 45.3699 210.06 44.7399L212.29 43.1799C212.35 43.7799 212.4 44.5899 212.43 45.6199C212.46 46.6499 212.48 47.3199 212.48 47.6299C212.48 49.3699 212.23 51.6699 211.72 54.5499C213.17 55.0199 214.63 55.4599 216.1 55.8499C217.57 56.2399 218.95 56.5399 220.25 56.7299C220.25 55.5899 219.86 54.1999 219.07 52.5599C218.28 50.9199 217.89 49.8399 217.89 49.3399C217.89 48.9599 217.95 48.5999 218.06 48.2499C218.17 47.8999 218.43 47.4399 218.84 46.8799L223.29 40.5299C224.14 42.5199 224.75 44.3299 225.11 45.9599C225.47 47.5899 225.65 49.6199 225.65 52.0499V69.9099V69.8799Z" fill="black"/>
<path d="M269.43 68.74C269.43 73.61 266.9 77.92 261.85 81.68C256.8 85.44 251.03 87.32 244.55 87.32C239.15 87.32 234.92 85.95 231.87 83.22C228.82 80.49 227.3 76.67 227.3 71.78C227.3 67.2 227.87 63.2 229.01 59.79C230.31 55.94 232.83 51.21 236.59 45.62L239.53 47.61C237.07 51.31 235.31 54.51 234.27 57.23C233.23 59.95 232.71 62.65 232.71 65.33C232.71 68.2 233.78 70.42 235.91 71.99C238.04 73.56 241.05 74.34 244.94 74.34C250.5 74.34 255.02 73.27 258.49 71.12C261.97 68.97 263.7 66.16 263.7 62.69V60.46C263.7 59.23 263.6 57.87 263.39 56.38C263.18 54.89 262.66 51.83 261.8 47.19C260.44 39.7 259.08 32.2 257.72 24.68L255.35 22.97C255.35 19.87 256.8 15.14 259.71 8.75L261.89 9.79C261.76 10.23 261.7 10.74 261.7 11.31C261.7 12.57 262.35 13.6 263.64 14.39C265.57 15.46 267.38 16.49 269.09 17.47C268.74 20.19 268.39 22.13 268.05 23.3C267.7 24.47 266.98 26.22 265.87 28.56L264.45 27.99C264.45 28.46 264.9 31.16 265.8 36.07C266.7 40.98 267.47 45.22 268.1 48.79C268.98 53.91 269.43 57.02 269.43 58.13V68.74Z" fill="black"/>
<path d="M286.97 56.1402C286.97 58.9502 286.64 61.5202 285.97 63.8402C285.31 66.1602 284.03 69.2802 282.13 73.2002L279.29 72.0602C280.05 68.0202 280.43 64.7302 280.43 62.2002C280.43 60.2702 280.27 57.4502 279.96 53.7202C279.65 49.9902 279.25 46.3002 278.78 42.6602C278.31 39.0202 277.53 34.6602 276.46 29.6102C276.08 27.8402 275.89 26.6202 275.89 25.9602C275.89 24.9802 276.38 23.3102 277.36 20.9602C278.34 18.6102 279.71 15.7602 281.48 12.4102L284.32 29.1802C285.36 35.5602 286.09 41.0902 286.5 45.7702C286.82 49.3702 286.97 52.8302 286.97 56.1502V56.1402Z" fill="black"/>
<path d="M325.44 69.93L319.28 69.88C313.5 69.88 308.38 70.37 303.93 71.35C299.48 72.33 297.25 73.45 297.25 74.71C298.48 78.5 299.58 82.05 300.54 85.37C301.5 88.69 301.99 91.83 301.99 94.8C301.99 96.95 301.78 98.69 301.35 100.01C300.92 101.33 300.13 102.79 298.96 104.37C298.61 100.2 297.84 95.82 296.64 91.24C296.23 89.63 295.2 86.23 293.56 81.05C292.55 77.86 292.04 75.74 292.04 74.7C292.04 73.22 292.45 71.37 293.27 69.16C293.93 67.36 294.69 65.76 295.54 64.37C296.55 62.79 298.31 61.54 300.82 60.63C303.33 59.71 307.16 58.97 312.31 58.4C309.78 54.86 307.57 53.09 305.68 53.09C304.86 53.09 304.08 53.41 303.36 54.04C302.64 54.67 301.45 56.06 299.81 58.21L297.54 57.07C298.93 52.24 300.64 48.52 302.68 45.91C304.72 43.3 306.95 42 309.39 42C311.51 42 313.86 43.22 316.45 45.65C319.04 48.08 322.04 51.87 325.45 57.02V69.91L325.44 69.93Z" fill="black"/>
<path d="M348.64 65.4202L356.3 64.6802C356.76 67.2502 357.7 69.1402 359.1 70.3402C360.51 71.5502 362.41 72.1502 364.8 72.1502C367.33 72.1502 369.24 71.6102 370.53 70.5402C371.81 69.4702 372.46 68.2102 372.46 66.7802C372.46 65.8602 372.19 65.0702 371.65 64.4302C371.11 63.7902 370.17 63.2202 368.82 62.7402C367.9 62.4202 365.8 61.8502 362.52 61.0402C358.3 59.9902 355.34 58.7102 353.64 57.1902C351.25 55.0502 350.05 52.4302 350.05 49.3502C350.05 47.3702 350.61 45.5102 351.74 43.7802C352.87 42.0502 354.49 40.7402 356.6 39.8302C358.71 38.9202 361.27 38.4702 364.27 38.4702C369.16 38.4702 372.84 39.5402 375.32 41.6902C377.8 43.8402 379.09 46.7002 379.21 50.2802L371.34 50.6302C371 48.6302 370.28 47.1902 369.17 46.3102C368.06 45.4302 366.4 44.9902 364.19 44.9902C361.98 44.9902 360.11 45.4602 358.82 46.4002C357.99 47.0002 357.57 47.8102 357.57 48.8202C357.57 49.7402 357.96 50.5302 358.74 51.1902C359.73 52.0202 362.14 52.8902 365.97 53.8002C369.8 54.7002 372.63 55.6402 374.46 56.6002C376.29 57.5702 377.73 58.8902 378.77 60.5602C379.81 62.2302 380.33 64.3002 380.33 66.7702C380.33 69.0002 379.71 71.0902 378.47 73.0402C377.23 74.9902 375.47 76.4402 373.21 77.3902C370.95 78.3402 368.11 78.8102 364.73 78.8102C359.8 78.8102 356.02 77.6702 353.38 75.3902C350.74 73.1102 349.16 69.7902 348.65 65.4302L348.64 65.4202Z" fill="#26DD00"/>
<path d="M422.09 78.1004H413.53L410.13 69.2504H394.55L391.33 78.1004H382.98L398.16 39.1304H406.48L422.08 78.1004H422.09ZM407.6 62.6904L402.23 48.2304L396.97 62.6904H407.6Z" fill="#26DD00"/>
<path d="M426.48 78.1002V39.4502H434.35V71.5402H453.92V78.1102H426.49L426.48 78.1002Z" fill="#26DD00"/>
<path d="M494.66 78.1004H486.1L482.7 69.2504H467.12L463.9 78.1004H455.55L470.73 39.1304H479.05L494.65 78.1004H494.66ZM480.18 62.6904L474.81 48.2304L469.55 62.6904H480.18Z" fill="#26DD00"/>
<path d="M498.73 78.1004V39.1304H510.51L517.58 65.7104L524.57 39.1304H536.37V78.1004H529.06V47.4204L521.32 78.1004H513.74L506.03 47.4204V78.1004H498.72H498.73Z" fill="#26DD00"/>
<path d="M223.69 67.9199C220.21 67.9199 217.74 67.7599 216.25 67.4499C214.76 67.1399 212 66.2499 207.96 64.7999C206.13 66.0999 204.49 66.9499 203.06 67.3599C201.62 67.7699 199.47 67.9799 196.59 67.9799H188.87C188.87 75.3099 186.53 80.5799 181.86 83.8099C177.78 86.6199 171.64 88.0299 163.43 88.0299C155.75 88.0299 149.84 86.6299 145.68 83.8399C141.52 81.0499 139.45 77.0699 139.45 71.9199C139.45 67.5299 140.11 63.5199 141.44 59.8799C142.89 55.8699 145.74 50.6599 149.97 44.2399L152.81 46.2299C149.68 51.5699 147.64 55.4399 146.67 57.8399C145.7 60.2399 145.22 62.7199 145.22 65.2799C145.22 68.5999 147 71.3099 150.55 73.4099C154.1 75.5099 158.77 76.5599 164.55 76.5599C170.33 76.5599 175.02 75.4699 178.91 73.2899C182.8 71.1099 184.74 68.4399 184.74 65.2799C184.74 63.3199 184.4 61.3799 183.72 59.4499C183.04 57.5199 181.58 54.4399 179.34 50.2099L183.51 37.4199C185.75 41.2099 187.24 44.3399 187.96 46.7999C188.59 48.9499 188.91 51.7099 188.91 55.0899H193.27C198.04 55.0899 201.37 54.5299 203.24 53.4099C205.12 52.2899 206.06 50.2699 206.06 47.3699C206.06 46.1099 206.18 45.1799 206.42 44.5999C206.66 44.0199 207.22 43.4099 208.1 42.7799L210.33 41.2199C210.39 41.8199 210.44 42.6299 210.47 43.6599C210.5 44.6899 210.52 45.3599 210.52 45.6699C210.52 47.4099 210.27 49.7099 209.76 52.5899C211.21 53.0599 212.67 53.4999 214.14 53.8899C215.61 54.2799 216.99 54.5799 218.29 54.7699C218.29 53.6299 217.9 52.2399 217.11 50.5999C216.32 48.9599 215.93 47.8799 215.93 47.3799C215.93 46.9999 215.99 46.6399 216.1 46.2899C216.21 45.9399 216.47 45.4799 216.88 44.9199L221.33 38.5699C222.18 40.5599 222.79 42.3699 223.15 43.9999C223.51 45.6299 223.69 47.6599 223.69 50.0899V67.9499V67.9199Z" fill="white"/>
<path d="M267.48 66.7898C267.48 71.6598 264.95 75.9698 259.9 79.7298C254.85 83.4898 249.08 85.3698 242.6 85.3698C237.2 85.3698 232.97 83.9998 229.92 81.2698C226.87 78.5398 225.35 74.7198 225.35 69.8298C225.35 65.2498 225.92 61.2498 227.06 57.8398C228.36 53.9898 230.88 49.2598 234.64 43.6698L237.58 45.6598C235.12 49.3598 233.36 52.5598 232.32 55.2798C231.28 57.9998 230.76 60.6998 230.76 63.3798C230.76 66.2498 231.83 68.4698 233.96 70.0398C236.09 71.6098 239.1 72.3898 242.99 72.3898C248.55 72.3898 253.07 71.3198 256.54 69.1698C260.01 67.0198 261.75 64.2098 261.75 60.7398V58.5098C261.75 57.2798 261.65 55.9198 261.44 54.4298C261.23 52.9398 260.71 49.8798 259.85 45.2398C258.49 37.7498 257.13 30.2498 255.77 22.7298L253.4 21.0198C253.4 17.9198 254.85 13.1898 257.76 6.7998L259.94 7.8398C259.81 8.2798 259.75 8.7898 259.75 9.3598C259.75 10.6198 260.4 11.6498 261.69 12.4398C263.62 13.5098 265.43 14.5398 267.14 15.5198C266.79 18.2398 266.44 20.1798 266.1 21.3498C265.76 22.5198 265.03 24.2698 263.92 26.6098L262.5 26.0398C262.5 26.5098 262.95 29.2098 263.85 34.1198C264.75 39.0298 265.52 43.2698 266.15 46.8398C267.03 51.9598 267.48 55.0698 267.48 56.1798V66.7898Z" fill="white"/>
<path d="M285.01 54.1797C285.01 56.9897 284.68 59.5597 284.01 61.8797C283.34 64.1997 282.07 67.3197 280.17 71.2397L277.33 70.0997C278.09 66.0597 278.47 62.7697 278.47 60.2397C278.47 58.3097 278.31 55.4897 278 51.7597C277.68 48.0297 277.29 44.3397 276.82 40.6997C276.35 37.0597 275.57 32.6997 274.5 27.6497C274.12 25.8797 273.93 24.6597 273.93 23.9997C273.93 23.0197 274.42 21.3497 275.4 18.9997C276.38 16.6497 277.75 13.7997 279.52 10.4497L282.36 27.2197C283.4 33.5997 284.13 39.1297 284.54 43.8097C284.86 47.4097 285.01 50.8697 285.01 54.1897V54.1797Z" fill="white"/>
<path d="M323.49 67.97L317.33 67.92C311.55 67.92 306.43 68.41 301.98 69.39C297.53 70.37 295.3 71.49 295.3 72.75C296.53 76.54 297.63 80.09 298.59 83.41C299.55 86.73 300.04 89.87 300.04 92.84C300.04 94.99 299.83 96.73 299.4 98.05C298.97 99.38 298.18 100.83 297.01 102.41C296.66 98.24 295.89 93.86 294.69 89.28C294.28 87.67 293.25 84.27 291.61 79.09C290.6 75.9 290.09 73.78 290.09 72.74C290.09 71.26 290.5 69.41 291.32 67.2C291.98 65.4 292.74 63.8 293.59 62.41C294.6 60.83 296.36 59.58 298.87 58.67C301.38 57.76 305.21 57.01 310.36 56.44C307.83 52.9 305.62 51.13 303.73 51.13C302.91 51.13 302.13 51.45 301.41 52.08C300.68 52.71 299.5 54.1 297.86 56.25L295.59 55.11C296.98 50.28 298.69 46.56 300.73 43.95C302.77 41.34 305 40.04 307.44 40.04C309.56 40.04 311.91 41.26 314.5 43.69C317.09 46.12 320.09 49.91 323.5 55.06V67.95L323.49 67.97Z" fill="white"/>
<path d="M3.48999 116.33C4.07999 107.87 10.12 102.91 16.1 102.33C18.32 102.12 24.83 101.99 30.17 101.95H31.52L31.62 100.58C31.62 93.2501 31.75 78.1101 31.95 76.3601C32.66 70.1001 38.13 64.6501 44.69 63.6801C44.87 63.6601 45.07 63.6401 45.27 63.6201C45.37 63.6201 45.74 63.5901 46.15 63.5701C46.15 66.8401 46.15 76.4701 46.14 100.56V101.93L95.55 101.94V72.7701H94.19C93.36 72.7701 88.14 72.6501 86.35 72.4501C80.09 71.7401 74.64 66.2701 73.67 59.7101C73.65 59.5301 73.63 59.3201 73.61 59.1101L73.59 58.8801C73.57 58.7501 73.56 58.6101 73.55 58.4801C73.55 58.4001 73.55 58.3301 73.54 58.2501H95.55V50.0701H79.76C78.39 50.0701 76.81 49.9601 74.8 49.7301C69.07 49.0801 64.08 44.0701 63.2 38.0701C63.18 37.9201 63.12 37.3101 63.12 37.3101C63.11 37.1901 63.09 37.0701 63.08 36.9401C63.08 36.9101 63.08 36.8701 63.08 36.8401H77.71H77.89V36.8201C79.06 36.8501 80.64 36.8501 82.79 36.8501H84.16H92.06H94.18H95.55V28.6101H88.52V28.6301C82.66 28.6301 81.6 28.6301 81.5 28.6301L81.53 28.6601C81.13 28.6201 80.65 28.6201 80.08 28.6201H72.53C70.82 28.6201 69.03 28.5101 67.19 28.3001C60.93 27.5901 55.47 22.1201 54.51 15.5601C54.49 15.3901 54.47 15.2001 54.45 15.0101L54.42 14.7301C54.41 14.6001 54.39 14.4601 54.38 14.3301C54.38 14.2501 54.38 14.1701 54.37 14.1001H69.7C70.15 14.1001 70.67 14.1001 71.28 14.1001H84.11H92C98.49 14.1001 103.33 16.3501 106.79 20.9501C108.9 23.7601 110.01 26.8601 110.06 30.1501C110.09 31.8101 110.1 103.14 110.1 116.33H3.48999Z" fill="black"/>
<path d="M17.9701 88.7298C17.9701 90.2098 17.9701 92.3798 17.9701 93.8098C17.8901 93.8098 17.8101 93.8098 17.7301 93.7998C17.6001 93.7998 17.4701 93.7798 17.3401 93.7598L17.1401 93.7398C16.8701 93.7198 16.6901 93.6998 16.5001 93.6798C9.97008 92.7198 4.61008 87.3798 3.78008 80.9798L3.74008 80.6898C3.62008 79.7798 3.46008 78.5398 3.47008 77.8998L3.50008 76.3398C3.48008 75.9898 3.46008 74.8598 3.46008 69.8798V63.5698C3.54008 63.5698 3.62008 63.5698 3.70008 63.5798C3.83008 63.5798 3.96008 63.5998 4.09008 63.6198L4.29008 63.6398C4.53008 63.6598 4.73008 63.6798 4.93008 63.6998C11.1001 64.6098 16.3501 69.8698 17.6701 76.4898C17.7701 77.0598 17.8801 81.1998 17.9401 85.4698L17.9701 88.7498V88.7298Z" fill="black"/>
<path d="M24.8 56.84C13.72 56.84 4.37004 48.19 3.52004 37.15C3.52004 37.01 3.51004 36.78 3.49004 36.55C3.48004 36.39 3.46004 36.24 3.46004 36.08L3.44004 35.49V34.96V22.94C3.44004 22.05 3.44004 21.36 3.42004 20.82L3.44004 20.84V2.95996C3.52004 2.95996 3.60004 2.95996 3.68004 2.96996C3.81004 2.96996 3.94004 2.98996 4.08004 3.00996L4.28004 3.02996C4.55004 3.04996 4.73004 3.06996 4.92004 3.08996C10.74 3.94996 15.84 8.41996 17.29 13.97L17.64 15.32L18.98 14.94C20.88 14.4 22.83 14.13 24.79 14.13C36.56 14.13 46.14 23.71 46.14 35.48C46.14 47.25 36.56 56.83 24.79 56.83L24.8 56.84ZM24.8 28.73C21.08 28.73 18.05 31.76 18.05 35.48C18.05 39.2 21.08 42.23 24.8 42.23C28.52 42.23 31.55 39.2 31.55 35.48C31.55 31.76 28.52 28.73 24.8 28.73Z" fill="black"/>
<path d="M0.0599365 113.38C0.649936 104.92 6.68994 99.9599 12.6699 99.3799C14.8899 99.1699 21.3999 99.0399 26.7399 98.9999H28.0899L28.1899 97.6299C28.1899 90.2999 28.3199 75.1599 28.5199 73.4099C29.2299 67.1499 34.6999 61.6999 41.2599 60.7299C41.4399 60.7099 41.6399 60.6899 41.8399 60.6699C41.9399 60.6699 42.3099 60.6399 42.7199 60.6199C42.7199 63.8899 42.7199 73.5199 42.7099 97.6099V98.9799L92.1199 98.9899V69.8199H90.7599C89.9299 69.8199 84.7099 69.6999 82.9199 69.4999C76.6599 68.7899 71.2099 63.3199 70.2399 56.7599C70.2199 56.5799 70.1999 56.3699 70.1799 56.1599L70.1599 55.9299C70.1399 55.7999 70.1299 55.6599 70.1199 55.5299C70.1199 55.4499 70.1199 55.3799 70.1099 55.2999H92.1199V47.1199H76.3299C74.9599 47.1199 73.3799 47.0099 71.3699 46.7799C65.6399 46.1299 60.6499 41.1199 59.7699 35.1199C59.7499 34.9699 59.6899 34.3599 59.6899 34.3599C59.6799 34.2399 59.6599 34.1199 59.6499 33.9899C59.6499 33.9599 59.6499 33.9199 59.6499 33.8899H74.2799H74.4599V33.8699C75.6299 33.8999 77.2099 33.8999 79.3599 33.8999H80.7299H88.6299H90.7499H92.1199V25.6599H85.0899V25.6799C79.2299 25.6799 78.1699 25.6799 78.0699 25.6799L78.0999 25.7099C77.6999 25.6699 77.2199 25.6699 76.6499 25.6699H69.0999C67.3899 25.6699 65.5999 25.5599 63.7599 25.3499C57.4999 24.6399 52.0399 19.1699 51.0799 12.6099C51.0599 12.4399 51.0399 12.2499 51.0199 12.0599L50.9899 11.7799C50.9799 11.6499 50.9599 11.5099 50.9499 11.3799C50.9499 11.2999 50.9499 11.2199 50.9399 11.1499H66.2699C66.7199 11.1499 67.2399 11.1499 67.8499 11.1499H80.6799H88.5699C95.0599 11.1499 99.8999 13.3999 103.36 17.9999C105.47 20.8099 106.58 23.9099 106.63 27.1999C106.66 28.8599 106.67 100.19 106.67 113.38H0.0599365Z" fill="url(#paint0_linear_7_523)"/>
<path d="M14.54 85.7801C14.54 87.2601 14.54 89.4301 14.54 90.8601C14.46 90.8601 14.38 90.8601 14.3 90.8501C14.17 90.8501 14.04 90.8301 13.91 90.8101L13.71 90.7901C13.44 90.7701 13.26 90.7501 13.07 90.7301C6.54003 89.7701 1.18003 84.4301 0.350029 78.0301L0.310029 77.7401C0.190029 76.8301 0.0300293 75.5901 0.0400293 74.9501L0.0700293 73.3901C0.0500293 73.0401 0.0300293 71.9101 0.0300293 66.9301V60.6201C0.110029 60.6201 0.190029 60.6201 0.270029 60.6301C0.400029 60.6301 0.530029 60.6501 0.660029 60.6701L0.860029 60.6901C1.10003 60.7101 1.30003 60.7301 1.50003 60.7501C7.67003 61.6601 12.92 66.9201 14.24 73.5401C14.34 74.1101 14.45 78.2501 14.51 82.5201L14.54 85.8001V85.7801Z" fill="url(#paint1_linear_7_523)"/>
<path d="M21.37 53.88C10.29 53.88 0.93999 45.23 0.0899902 34.19C0.0899902 34.05 0.0799902 33.82 0.0599902 33.59C0.0499902 33.43 0.0299902 33.28 0.0299902 33.12L0.00999023 32.53V32V19.98C0.00999023 19.09 0.00999023 18.4 -0.0100098 17.86L0.00999023 17.88V0C0.0899902 0 0.16999 0 0.24999 0.01C0.37999 0.01 0.50999 0.03 0.64999 0.05L0.84999 0.07C1.11999 0.09 1.29999 0.11 1.48999 0.13C7.30999 0.99 12.41 5.46 13.86 11.01L14.21 12.36L15.55 11.98C17.45 11.44 19.4 11.17 21.36 11.17C33.13 11.17 42.71 20.75 42.71 32.52C42.71 44.29 33.13 53.87 21.36 53.87L21.37 53.88ZM21.37 25.78C17.65 25.78 14.62 28.81 14.62 32.53C14.62 36.25 17.65 39.28 21.37 39.28C25.09 39.28 28.12 36.25 28.12 32.53C28.12 28.81 25.09 25.78 21.37 25.78Z" fill="url(#paint2_linear_7_523)"/>
</g>
<defs>
<linearGradient id="paint0_linear_7_523" x1="0.0599365" y1="62.2599" x2="106.69" y2="62.2599" gradientUnits="userSpaceOnUse">
<stop stop-color="#FF3217"/>
<stop offset="0.56" stop-color="#FD3016"/>
<stop offset="0.76" stop-color="#F62C15"/>
<stop offset="0.9" stop-color="#EA2512"/>
<stop offset="1" stop-color="#DD1E10"/>
</linearGradient>
<linearGradient id="paint1_linear_7_523" x1="0.0200293" y1="75.7301" x2="14.55" y2="75.7301" gradientUnits="userSpaceOnUse">
<stop stop-color="#FF3217"/>
<stop offset="0.56" stop-color="#FD3016"/>
<stop offset="0.76" stop-color="#F62C15"/>
<stop offset="0.9" stop-color="#EA2512"/>
<stop offset="1" stop-color="#DD1E10"/>
</linearGradient>
<linearGradient id="paint2_linear_7_523" x1="-9.76613e-06" y1="26.94" x2="42.72" y2="26.94" gradientUnits="userSpaceOnUse">
<stop stop-color="#FF3217"/>
<stop offset="0.56" stop-color="#FD3016"/>
<stop offset="0.76" stop-color="#F62C15"/>
<stop offset="0.9" stop-color="#EA2512"/>
<stop offset="1" stop-color="#DD1E10"/>
</linearGradient>
<clipPath id="clip0_7_523">
<rect width="538.33" height="116.33" fill="white"/>
</clipPath>
</defs>
</svg>
