<?xml version="1.0" encoding="UTF-8"?>
<svg id="Layer_2" data-name="Layer 2" xmlns="http://www.w3.org/2000/svg" viewBox="0 0 84.19 94.12">
  <defs>
    <style>
      .cls-1 {
        fill: #fff;
        stroke-width: 0px;
      }
    </style>
  </defs>
  <g id="SALAM">
    <g>
      <path class="cls-1" d="M70.73,94.12c-1.85-.02-6.65-.03-14.26-.03s-17.34,0-24.38.02c0,0-6.73,0-8.32,0-.13,0-.28,0-.43,0h-.21c-1.95-.02-3.98-.03-6.41-.03-2.03,0-4.06,0-6.09.01h-.2c-1.97,0-3.93.01-5.9.01h-.18c-1.07,0-2.08-.06-2.76-.79-.68-.73-.68-1.85-.61-2.84.34-5.34,3-7.72,8.63-7.72.27,0,.55,0,.85.02,2.06.08,4.31.12,6.86.12,1.49,0,3.08-.01,5.16-.04.98-.01,1.61-.14,1.94-.39l.17-.13.09-.19c.07-.12.29-.54.26-2.17-.07-3.03-.05-6.09-.03-9.05,0-1.32.02-2.63.02-3.95,0-.9,0-1.81.02-2.71v-.03c.02-2.07.04-4.21-.04-6.3-.09-2.16.5-3.97,1.7-5.21,1.12-1.16,2.72-1.78,4.62-1.78.25,0,.51.01.76.03.19.02.39.02.58.03h.27c2.31.1,3.17.97,3.17,3.23,0,3.41,0,6.83,0,10.24v1.01c0,3.46,0,6.92,0,10.38,0,.97.02,1.97.04,2.94v.27s0,.01,0,.01v.07c0,.83,0,1.78-.05,2.77l-.04.92h.93c5.42.03,12,.04,16.56.04,7.77,0,14.94-.02,16.67-.04.94-.01,1.56-.13,1.9-.36l.63-.44-.21-.43c.04-.59.06-1.17.06-1.73,0-4.66.01-5.29.02-5.56,0-.18,0-.21,0-.72v-5.04c0-1.5-.06-2.75-.18-3.91-.2-1.96-1.28-2.3-2.31-2.37-2.63-.18-5.31-.23-7.91-.29l-3.53-.03c-2.94-.06-3.54-.65-3.56-3.51v-.81c-.02-1.16-.03-2.36,0-3.54.05-2.61.73-3.29,3.3-3.31.81,0,3.69,0,4.55,0h.47c2.22,0,4.07,0,5.99-.09,1.02-.05,2.86-.39,3.64-2.18.36-.84,1.48-3.38-.28-5.07-.66-.63-2-1.1-3.27-1.15-1.68-.06-3.48-.09-5.68-.09-1.4,0-2.82.01-4.2.02-.85,0-4.73.01-7.29.02h-2.11c-2.2,0-3.07-.85-3.11-3.04-.02-.91-.01-1.82-.01-2.71v-.06c0-.72,0-1.44,0-2.16,0-.85.07-1.81.7-2.45.64-.65,1.61-.73,2.48-.74h8.77c3.22,0,6.53,0,9.77-.02,1.61,0,2.85-.52,3.69-1.52.93-1.11,1.28-2.79.97-4.61-.25-1.46-1.68-2.42-3.64-2.43-1.68,0-3.43-.02-5.22-.02-2.51,0-14.17,0-17.37.03h-.05c-2.16,0-4.06-.88-5.37-2.48-1.42-1.73-1.95-4.11-1.47-6.52.22-1.12,1.77-1.89,2.69-1.91,1.74-.04,12.36-.06,14.9-.06,1.03,0,2.05,0,3.08,0,.9,0,1.8,0,2.7,0h2.9c1.56,0,3.38,0,5.17.02,3.88.04,7.12,1.37,9.38,3.84,2.32,2.54,3.42,6.17,3.1,10.25-.27,3.45-1.45,5.89-4.06,8.43l-.67.65.69.63c2.59,2.37,3.9,5.59,4.01,9.83.1,3.63-1.3,6.82-4.27,9.74l-.67.66.69.63c.29.26.53.5.75.73,2,2.1,2.99,4.91,3.01,8.57.02,2.63.03,4.19.04,5.18v.32c.02,1.47.02,1.5,0,2.54-.01.86-.03,2.46-.06,6.14v.1c-.01,3.36-.23,7.2-2.6,10.26l-.05.06-.05.05s-.06.05-.08.08l-.04.03-.04.04c-2.39,2.56-5.5,3.75-9.79,3.75h-.24Z"/>
      <path class="cls-1" d="M17.4,46.5c-5.79,0-11.13-2.75-14.28-7.35-2.07-3.02-3.11-6.17-3.11-9.39,0-1.91.38-3.85,1.12-5.76.76-1.96,1.83-3.78,2.77-5.3l.31-.51-.35-.48C1.72,14.8.65,11.77.65,8.68c0-1.41.22-2.84.67-4.26.49-1.58,1.88-2.95,3.82-3.77,1.01-.42,2.07-.65,3.08-.65.93,0,1.8.19,2.51.56.74.38,1.13,1.25,1.24,1.94.03.2.05.42.05.65,0,.31-.03.61-.05.87-.02.18-.03.33-.04.49l-.04.73v.17c.06.62.11,1.27.11,1.92,0,.15,0,.29,0,.44v.1c0,1.36.78,2.39,1.44,3.02,1.2,1.14,2.73,1.65,3.71,1.65.05,0,.1,0,.16,0,.34-.02.69-.03,1.03-.03,4.02,0,7.76,1.33,10.79,3.86,4.14,3.44,6.33,7.81,6.33,12.62,0,.96-.09,1.95-.26,2.95-1.3,7.46-5.95,12.33-13.43,14.08-1.44.34-2.9.51-4.34.51h0ZM17.6,35.35c.18.01.36.02.53.02,4.61,0,6.09-3.72,6.24-5.91,0-.09,0-.18,0-.27,0-2.82-3.02-5.67-6.1-5.74-.1,0-.19,0-.29,0-4.08,0-6.62,2.23-6.79,5.97,0,.08,0,.16,0,.25,0,1.52.65,3.01,1.78,4.08,1.1,1.04,2.57,1.62,4.15,1.62.12,0,.23,0,.35,0h.06s.06,0,.06,0Z"/>
      <path class="cls-1" d="M8.4,78.4c-1.45-.11-2.97-.27-4.37-.79-1.9-.71-3.05-2.52-3.07-4.85-.04-4.98-.03-10.04-.01-14.94v-4c.01-2.15,1.41-2.73,3.77-2.73,3.69,0,7.3,1.92,7.35,6.56.02,2.02.01,4.04,0,5.99v1.19s0,1.48,0,1.48v3.23c0,1.86,0,3.71,0,5.56,0,2.31-.89,3.34-2.86,3.34-.18,0-.37,0-.59-.02-.08,0-.16-.01-.24-.02Z"/>
    </g>
  </g>
</svg>