<?xml version="1.0" encoding="UTF-8"?>
<svg id="Layer_2" data-name="Layer 2" xmlns="http://www.w3.org/2000/svg" viewBox="0 0 471.9 83.02">
  <defs>
    <style>
      .cls-1 {
        fill: #010101;
        stroke-width: 0px;
      }
    </style>
  </defs>
  <g id="Layer_3" data-name="Layer 3">
    <g>
      <path class="cls-1" d="M294.88,66.95c0-1.43-.02-2.85-.04-4.26-.05-3.95-.09-7.68.09-11.47.32-6.62,5.51-11.33,12.62-11.46.49,0,.97-.01,1.46-.01h1.83s61.09,0,61.09,0v27.18h-10.53v-16.47h-55.92v5.95h22.58c5,0,10,0,15,0,3.39,0,5.94.79,8.04,2.48,2.26,1.82,3.7,4.66,4.09,8.07h-60.3Z"/>
      <path class="cls-1" d="M94.71,66.93s0-.08,0-.12c.16-4.08,3.49-8.47,7.27-9.57,1.78-.52,3.67-.79,5.47-.8,13.42-.04,27.57-.04,38.64-.04h32.27s0-5.98,0-5.98l-83.74.11.24-15.92c.27-4.76,4.99-9.51,10.1-10.12,1.38-.16,2.74-.25,4.03-.25,17.23,0,34.47-.01,51.7-.01h28.25c0,.06,0,.12,0,.18,0,.09-.02.19-.03.29l-.02.15c-.02.19-.03.33-.05.47-.7,4.79-4.69,8.8-9.28,9.31-1.34.15-2.66.23-3.91.23-13.67,0-28.51.01-42.18.01h-28.22s0,6.02,0,6.02h71.28c4.57,0,7.91,1.48,10.21,4.54,1.46,1.93,2.22,4.11,2.25,6.48.05,3.73.04,7.55.03,11.24,0,1.25,0,2.51,0,3.77h-94.32Z"/>
      <path class="cls-1" d="M377.54,66.97v-27.22h40.57c13.5,0,27.01,0,40.51,0,4.76,0,8.3,1.64,10.83,5.01,1.55,2.06,2.35,4.33,2.4,6.73.07,3.84.05,7.78.04,11.58,0,1.28,0,2.57-.01,3.86h-36.24c.43-6.19,4.86-9.83,9.23-10.25,2.32-.22,4.75-.24,7.1-.25,1.03,0,2.04-.01,3.06-.03.49,0,.97-.01,1.46-.01h4.73s0-5.94,0-5.94h-31.73v16.5h-9.47v-16.48h-31.87v5.93h3.27c.21,0,.42,0,.62,0,1.26.02,2.52.03,3.78.03h.13c2.84,0,5.76.01,8.57.26,4.39.38,8.83,4.01,9.26,10.28h-36.23Z"/>
      <path class="cls-1" d="M194.75,66.95c0-1.43-.02-2.85-.04-4.26-.05-3.95-.09-7.68.09-11.47.32-6.62,5.51-11.33,12.62-11.46.49,0,.97-.01,1.46-.01h1.83s61.09,0,61.09,0v27.18h-10.53v-16.47h-55.92v5.95h22.58c5,0,10,0,15,0,3.39,0,5.94.79,8.04,2.48,2.26,1.82,3.7,4.66,4.09,8.07h-60.3Z"/>
      <rect class="cls-1" x="277.51" y="24.3" width="11.61" height="42.67"/>
    </g>
    <g>
      <path class="cls-1" d="M.05,83.02c.43-6.19,4.86-9.83,9.23-10.25,1.63-.16,11.3-.29,11.3-.29,0,0,.17-17.45.31-18.73.52-4.59,5.02-9.36,10.4-9.36,0,2.39-.01,28.09-.01,28.09h36.18s0-21.35,0-21.35h-1c-.61,0-4.43-.08-5.74-.23-4.59-.52-9-5.11-9.38-10.4h16.12s0-5.99,0-5.99h-8.8c-8.61,0-13.26-1.26-14.97-9.69h23.77v-6.04h-16.86c-10.24,0-12.43-6.19-13.29-10.62h27.76c7.38,0,13.03,5.06,13.03,13.05,0,1.21.03,52.15.03,61.8H.05Z"/>
      <path class="cls-1" d="M0,54.87c-.14,5.98,4.49,11.42,10.65,11.66v-11.08c0-5.37-5.64-10.88-10.64-11.08v10.5Z"/>
      <path class="cls-1" d="M15.65,39.45C7.54,39.45.02,32.96.02,23.82V0c6.41.4,9.87,5.57,10.4,9.05,0,0,2.07-.87,5.24-.87,8.62,0,15.64,7.01,15.64,15.64s-7.01,15.64-15.64,15.64ZM15.65,18.88c-2.73,0-4.94,2.22-4.94,4.94s2.22,4.94,4.94,4.94,4.94-2.22,4.94-4.94-2.22-4.94-4.94-4.94Z"/>
    </g>
  </g>
</svg>