<svg width="78" height="74" viewBox="0 0 78 74" fill="none" xmlns="http://www.w3.org/2000/svg">
<path d="M10.9072 20.5637H0.226074V53.1967H10.9072V20.5637Z" fill="url(#paint0_linear_51_4)" stroke="black" stroke-miterlimit="10"/>
<path d="M44.2028 73.5565L14.6138 52.0154V22.1113L44.2028 0.447998V73.5565Z" fill="url(#paint1_linear_51_4)" stroke="black" stroke-miterlimit="10"/>
<path d="M48.8584 45.4671C53.4463 45.4671 57.171 41.7426 57.171 37.1448C57.171 32.5469 53.4509 28.8225 48.8584 28.8225H47.0322V45.4626H48.8584V45.4671Z" fill="url(#paint2_linear_51_4)" stroke="black" stroke-miterlimit="10"/>
<path d="M67.9743 37.1447C67.9743 27.4738 60.3171 19.595 50.7434 19.2466V24.1974C57.5869 24.5413 63.0292 30.2072 63.0292 37.1402C63.0292 44.0731 57.5869 49.739 50.7434 50.0829V55.0338C60.3171 54.6853 67.9743 46.8065 67.9743 37.1356V37.1447Z" fill="url(#paint3_linear_51_4)" stroke="black" stroke-miterlimit="10"/>
<path d="M77.774 37.1448C77.774 22.7449 66.8081 10.9154 52.782 9.55322V14.6353C64.0146 15.9748 72.7295 25.5371 72.7295 37.1448C72.7295 48.7526 64.0191 58.3148 52.782 59.6544V64.7364C66.8081 63.3743 77.774 51.5448 77.774 37.1448Z" fill="url(#paint4_linear_51_4)" stroke="black" stroke-miterlimit="10"/>
<defs>
<linearGradient id="paint0_linear_51_4" x1="5.56439" y1="53.1967" x2="5.56439" y2="20.5637" gradientUnits="userSpaceOnUse">
<stop/>
<stop offset="0.62" stop-color="#2C2C2C"/>
<stop offset="1" stop-color="#4A4A4A"/>
</linearGradient>
<linearGradient id="paint1_linear_51_4" x1="29.4083" y1="73.5565" x2="29.4083" y2="0.447998" gradientUnits="userSpaceOnUse">
<stop/>
<stop offset="0.62" stop-color="#2C2C2C"/>
<stop offset="1" stop-color="#4A4A4A"/>
</linearGradient>
<linearGradient id="paint2_linear_51_4" x1="52.1039" y1="45.4671" x2="52.1039" y2="28.827" gradientUnits="userSpaceOnUse">
<stop stop-color="#25B40C"/>
<stop offset="1" stop-color="#26DD00"/>
</linearGradient>
<linearGradient id="paint3_linear_51_4" x1="59.3588" y1="55.0428" x2="59.3588" y2="19.2511" gradientUnits="userSpaceOnUse">
<stop stop-color="#25B40C"/>
<stop offset="1" stop-color="#26DD00"/>
</linearGradient>
<linearGradient id="paint4_linear_51_4" x1="22.3929" y1="37.1448" x2="77.774" y2="37.1448" gradientUnits="userSpaceOnUse">
<stop stop-color="#25B40C"/>
<stop offset="1" stop-color="#26DD00"/>
</linearGradient>
</defs>
</svg>
